<svg xmlns="http://www.w3.org/2000/svg" width="31.762" height="38.545" viewBox="0 0 31.762 38.545"><defs><style>.a{fill:#4e4e4e;}</style></defs><g transform="translate(-1000.092 -287.561)"><g transform="translate(1000.092 294.031) rotate(-16)"><path class="a" d="M4.825,15.342,2.372,14.6l.231-.761a5.1,5.1,0,0,1,4.142-3.526,3.924,3.924,0,0,0,3.324-3.566A3.9,3.9,0,0,0,2.453,5.327L0,4.583a6.46,6.46,0,1,1,7.118,8.265,2.5,2.5,0,0,0-2.063,1.734Z" transform="translate(5.563 4.954)"/><rect class="a" width="2.485" height="2.485" transform="translate(7.27 22.101) rotate(16.872)"/><path class="a" d="M.616,7.743a12.124,12.124,0,0,0,1.7,10.866,4.461,4.461,0,0,1,.643,3.764L1.671,26.622A1.1,1.1,0,0,0,2.355,27.9l.98.3-.3.98a3.245,3.245,0,0,0,6.21,1.883l.3-.98.981.3a1.1,1.1,0,0,0,1.278-.683l1.239-4.086a4.075,4.075,0,0,1,2.625-2.772,11.417,11.417,0,0,0,7.3-7.6A11.793,11.793,0,0,0,.616,7.743ZM7.124,30.417a1.1,1.1,0,0,1-1.279.683,1.1,1.1,0,0,1-.683-1.278L5,29.773l.3-.981,2.125.645Zm3.71-4.585-.644,2.124L3.98,26.073l.644-2.124L5.005,22.1a5.709,5.709,0,0,0-1.1-4.616,9.652,9.652,0,1,1,16.987-3.057,9.789,9.789,0,0,1-5.989,6.214,7.727,7.727,0,0,0-3.477,3.228Z" transform="translate(0 0)"/></g></g></svg>