<svg xmlns="http://www.w3.org/2000/svg" width="54.994" height="54.993" viewBox="0 0 54.994 54.993">
  <g id="Groupe_157" data-name="Groupe 157" style="isolation: isolate">
    <path id="Tracé_166" data-name="Tracé 166" d="M397.7,236.673a27.5,27.5,0,1,1,27.5-27.5A27.526,27.526,0,0,1,397.7,236.673Zm0-52.907a25.411,25.411,0,1,0,25.413,25.412A25.44,25.44,0,0,0,397.7,183.765Z" transform="translate(-370.205 -181.68)" fill="#c9c9c9"/>
    <g id="Groupe_48" data-name="Groupe 48" transform="translate(12.583 18.003)">
      <path id="Tracé_167" data-name="Tracé 167" d="M390.222,212.9a5.1,5.1,0,0,0,3.4-2.387,5.413,5.413,0,0,0,.824-2.954,4.9,4.9,0,0,0-.721-2.713,4.121,4.121,0,0,0-2.139-1.635A4.461,4.461,0,0,0,393,202.158a4.137,4.137,0,0,0,.858-2.727,4.715,4.715,0,0,0-.851-2.827q-1.414-1.922-4.8-1.973h-8.953v18.523H387.6A12.791,12.791,0,0,0,390.222,212.9Zm-7.27-15.054h4.03a6.965,6.965,0,0,1,2.189.289,1.66,1.66,0,0,1,1,1.708,1.749,1.749,0,0,1-.753,1.628,3.717,3.717,0,0,1-1.959.459h-4.5Zm0,12.089V205h4.559a4.648,4.648,0,0,1,1.852.313,1.989,1.989,0,0,1,1.179,1.985,2.335,2.335,0,0,1-1.216,2.313,4.366,4.366,0,0,1-1.875.327Z" transform="translate(-379.257 -194.631)" fill="#c9c9c9"/>
      <g id="Groupe_47" data-name="Groupe 47" transform="translate(16.24 1.064)">
        <path id="Tracé_168" data-name="Tracé 168" d="M393.031,210.681a7.462,7.462,0,0,0,4.825,1.686,6.646,6.646,0,0,0,5.152-2,4.462,4.462,0,0,0,1.329-2.476H400.68a2.994,2.994,0,0,1-.738.942,3.035,3.035,0,0,1-1.988.628,3.622,3.622,0,0,1-1.974-.516,3.282,3.282,0,0,1-1.433-2.89h9.977a17.708,17.708,0,0,0-.118-2.719,6.735,6.735,0,0,0-1.091-2.83,5.556,5.556,0,0,0-2.369-2.027,7.784,7.784,0,0,0-3.221-.642,6.6,6.6,0,0,0-4.9,1.9,7.412,7.412,0,0,0-1.888,5.457Q390.94,209,393.031,210.681Zm2.559-9.106a2.844,2.844,0,0,1,2.137-.781,3.149,3.149,0,0,1,2.125.737,2.986,2.986,0,0,1,.954,2.164h-6.171A3.732,3.732,0,0,1,395.59,201.575Z" transform="translate(-390.94 -194.444)" fill="#c9c9c9"/>
        <rect id="Rectangle_123" data-name="Rectangle 123" width="8.05" height="1.869" transform="translate(2.528)" fill="#c9c9c9"/>
      </g>
    </g>
  </g>
</svg>
