<svg xmlns="http://www.w3.org/2000/svg" width="54.994" height="54.993" viewBox="0 0 54.994 54.993">
  <g id="Groupe_152" data-name="Groupe 152" transform="translate(0)" style="isolation: isolate">
    <path id="Tracé_157" data-name="Tracé 157" d="M397.7,182.748a27.5,27.5,0,1,1,27.5-27.5A27.526,27.526,0,0,1,397.7,182.748Zm0-52.907a25.411,25.411,0,1,0,25.413,25.412A25.44,25.44,0,0,0,397.7,129.84Z" transform="translate(-370.205 -127.755)" fill="#41718e"/>
    <path id="Tracé_158" data-name="Tracé 158" d="M388.026,168.013h6.439V151.887h4.493l.48-5.4h-4.972v-3.075c0-1.273.256-1.777,1.487-1.777h3.485v-5.6h-4.459c-4.792,0-6.952,2.11-6.952,6.15v4.305h-3.35v5.467h3.35Z" transform="translate(-364.56 -124.526)" fill="#41718e"/>
  </g>
</svg>
