<svg xmlns="http://www.w3.org/2000/svg" width="53.747" height="52.851" viewBox="0 0 53.747 52.851">
  <g id="Groupe_143" data-name="Groupe 143" transform="translate(-3971 -2836.008)" style="isolation: isolate">
    <path id="Tracé_389" data-name="Tracé 389" d="M228.555,290a27.122,27.122,0,0,0-8.505,52.8c1.336.27,1.825-.582,1.825-1.3,0-.627-.044-2.781-.044-5.024-7.481,1.616-9.039-3.23-9.039-3.23-1.2-3.141-2.984-3.948-2.984-3.948-2.449-1.659.179-1.659.179-1.659a5.638,5.638,0,0,1,4.141,2.781c2.4,4.127,6.278,2.96,7.837,2.243a5.772,5.772,0,0,1,1.691-3.633c-5.967-.629-12.245-2.961-12.245-13.368a10.613,10.613,0,0,1,2.76-7.268,9.86,9.86,0,0,1,.269-7.178s2.271-.717,7.391,2.781a25.647,25.647,0,0,1,13.447,0c5.121-3.5,7.391-2.781,7.391-2.781a9.849,9.849,0,0,1,.267,7.178,10.4,10.4,0,0,1,2.761,7.268c0,10.407-6.278,12.695-12.29,13.368.98.852,1.825,2.466,1.825,5.024,0,3.633-.044,6.549-.044,7.446,0,.719.491,1.571,1.825,1.3a27.123,27.123,0,0,0-8.46-52.8Z" transform="translate(3769.341 2546.006)" fill="#41718e" fill-rule="evenodd"/>
  </g>
</svg>
