<svg xmlns="http://www.w3.org/2000/svg" width="66.222" height="66.222" viewBox="0 0 66.222 66.222"><defs><style>.a{fill:#e5dfd3;}</style></defs><path class="a" d="M29.992,64.344a39.259,39.259,0,0,1-3.559-6.829,46.607,46.607,0,0,1-2.318-7.988h-12.5A27.309,27.309,0,0,0,29.992,64.344ZM9.96,44.561H23.2q-.248-1.987-.331-3.6t-.083-3.684q0-1.738.041-3.518t.29-4.015H9.96a23.347,23.347,0,0,0-.786,3.684,32.174,32.174,0,0,0-.207,3.849A29.1,29.1,0,0,0,9.174,41,24.152,24.152,0,0,0,9.96,44.561Zm1.656-19.784H24.032a49.62,49.62,0,0,1,2.483-8.195,39.614,39.614,0,0,1,3.559-6.788A36.4,36.4,0,0,0,18.9,15.547,29.68,29.68,0,0,0,11.615,24.777Zm17.549,0H45.14a41.152,41.152,0,0,0-3.187-9.147A27.522,27.522,0,0,0,37.111,8.8a28.17,28.17,0,0,0-4.842,7.036A42.041,42.041,0,0,0,29.164,24.777Zm21.108,0H62.606a29.634,29.634,0,0,0-7.657-9.188A33.169,33.169,0,0,0,44.23,9.877a37.574,37.574,0,0,1,3.518,6.788A59.99,59.99,0,0,1,50.272,24.777ZM37.111,70.222a33.356,33.356,0,0,1-13-2.525A32.33,32.33,0,0,1,13.6,60.7,32.976,32.976,0,0,1,6.566,50.231,32.613,32.613,0,0,1,4,37.276,33.211,33.211,0,0,1,6.566,24.239,32.742,32.742,0,0,1,13.6,13.685,33.443,33.443,0,0,1,24.115,6.607,32.446,32.446,0,0,1,37.111,4a32.446,32.446,0,0,1,13,2.607,33.443,33.443,0,0,1,10.513,7.077,32.742,32.742,0,0,1,7.036,10.554,33.21,33.21,0,0,1,2.566,13.037q0,1.408-.083,2.814a24.319,24.319,0,0,1-.331,2.814H64.676a20.4,20.4,0,0,0,.455-2.69q.124-1.284.124-2.939a32.173,32.173,0,0,0-.207-3.849,23.347,23.347,0,0,0-.786-3.684H51.017q.248,2.483.372,4.1t.124,3.435q0,1.16-.041,2.359t-.207,3.27H46.216q.166-1.738.248-2.98t.083-2.649q0-1.738-.083-3.352t-.414-4.18h-17.8q-.33,2.565-.414,4.18t-.083,3.352q0,1.656.083,3.187t.414,4.1H42.905v4.967H29.164a53.545,53.545,0,0,0,3.477,9.85,18.181,18.181,0,0,0,4.47,5.877A27.5,27.5,0,0,0,40.3,61.2a42.56,42.56,0,0,0,2.607-4.636V69.725q-1.408.248-2.856.372T37.111,70.222Zm26.323-3.228-10.6-10.6v8.526H47.872V47.872H64.924v4.967H56.315l10.6,10.6Z" transform="translate(-4 -4)"/></svg>