<svg xmlns="http://www.w3.org/2000/svg" width="54.994" height="54.993" viewBox="0 0 54.994 54.993">
  <g id="Groupe_156" data-name="Groupe 156" transform="translate(-3595 -2836.008)" style="isolation: isolate">
    <g id="Groupe_46" data-name="Groupe 46" transform="translate(3595 2836.008)">
      <path id="Tracé_162" data-name="Tracé 162" d="M453.437,182.748a27.5,27.5,0,1,1,27.5-27.5A27.528,27.528,0,0,1,453.437,182.748Zm0-52.907a25.411,25.411,0,1,0,25.41,25.412A25.442,25.442,0,0,0,453.437,129.84Z" transform="translate(-425.939 -127.755)" fill="#c9c9c9"/>
      <g id="Groupe_45" data-name="Groupe 45" transform="translate(12.993 12.992)">
        <path id="Tracé_163" data-name="Tracé 163" d="M449.79,139.714c3.873,0,4.331.015,5.862.085a8.036,8.036,0,0,1,2.693.5,4.794,4.794,0,0,1,2.752,2.752,8.035,8.035,0,0,1,.5,2.693c.07,1.53.085,1.989.085,5.862s-.015,4.331-.085,5.861a8.037,8.037,0,0,1-.5,2.694,4.794,4.794,0,0,1-2.752,2.752,8.008,8.008,0,0,1-2.693.5c-1.531.069-1.988.085-5.862.085s-4.331-.015-5.861-.085a8.019,8.019,0,0,1-2.694-.5,4.8,4.8,0,0,1-2.752-2.752,8.012,8.012,0,0,1-.5-2.694c-.069-1.529-.085-1.988-.085-5.861s.015-4.331.085-5.862a8.01,8.01,0,0,1,.5-2.693,4.8,4.8,0,0,1,2.752-2.752,8.047,8.047,0,0,1,2.694-.5c1.529-.07,1.988-.085,5.861-.085m0-2.613c-3.94,0-4.433.018-5.98.088a10.656,10.656,0,0,0-3.521.674,7.417,7.417,0,0,0-4.241,4.242,10.619,10.619,0,0,0-.674,3.521c-.071,1.547-.088,2.041-.088,5.98s.017,4.433.088,5.98a10.619,10.619,0,0,0,.674,3.521,7.417,7.417,0,0,0,4.241,4.242,10.693,10.693,0,0,0,3.521.674c1.547.069,2.041.086,5.98.086s4.433-.017,5.98-.086a10.693,10.693,0,0,0,3.521-.674,7.425,7.425,0,0,0,4.242-4.242,10.657,10.657,0,0,0,.674-3.521c.071-1.547.088-2.041.088-5.98s-.017-4.433-.088-5.98a10.657,10.657,0,0,0-.674-3.521,7.425,7.425,0,0,0-4.242-4.242,10.656,10.656,0,0,0-3.521-.674c-1.547-.07-2.041-.088-5.98-.088" transform="translate(-435.286 -137.101)" fill="#c9c9c9"/>
        <path id="Tracé_164" data-name="Tracé 164" d="M447.81,142.178a7.448,7.448,0,1,0,7.448,7.448,7.448,7.448,0,0,0-7.448-7.448m0,12.283a4.835,4.835,0,1,1,4.835-4.835,4.834,4.834,0,0,1-4.835,4.835" transform="translate(-433.306 -135.121)" fill="#c9c9c9"/>
        <path id="Tracé_165" data-name="Tracé 165" d="M453.519,142.454a1.74,1.74,0,1,1-1.74-1.74,1.74,1.74,0,0,1,1.74,1.74" transform="translate(-429.532 -135.692)" fill="#c9c9c9"/>
      </g>
    </g>
  </g>
</svg>
