<svg xmlns="http://www.w3.org/2000/svg" width="54.991" height="54.993" viewBox="0 0 54.991 54.993">
  <g id="Groupe_151" data-name="Groupe 151" transform="translate(0)" style="isolation: isolate">
    <path id="Tracé_159" data-name="Tracé 159" d="M342.6,236.673a27.5,27.5,0,1,1,27.5-27.5A27.526,27.526,0,0,1,342.6,236.673Zm0-52.907a25.411,25.411,0,1,0,25.41,25.412A25.44,25.44,0,0,0,342.6,183.765Z" transform="translate(-315.102 -181.68)" fill="#41718e"/>
    <g id="Groupe_43" data-name="Groupe 43" transform="translate(14.974 12.757)">
      <g id="Groupe_42" data-name="Groupe 42">
        <rect id="Rectangle_122" data-name="Rectangle 122" width="5.475" height="17.687" transform="translate(0.526 8.843)" fill="#41718e"/>
        <path id="Tracé_160" data-name="Tracé 160" d="M329.112,197.383a3.263,3.263,0,1,0-3.237-3.264A3.252,3.252,0,0,0,329.112,197.383Z" transform="translate(-325.874 -190.857)" fill="#41718e"/>
      </g>
      <path id="Tracé_161" data-name="Tracé 161" d="M337.961,205.772c0-2.485,1.144-3.967,3.335-3.967,2.014,0,2.982,1.422,2.982,3.967v9.284h5.449v-11.2c0-4.737-2.686-7.028-6.436-7.028a6.165,6.165,0,0,0-5.33,2.922v-2.381h-5.252v17.686h5.252Z" transform="translate(-323.208 -188.527)" fill="#41718e"/>
    </g>
  </g>
</svg>
