<svg xmlns="http://www.w3.org/2000/svg" width="431.599" height="257.892" viewBox="0 0 431.599 257.892"><defs><style>.a{fill:#e02d4a;}.b{fill:#f27c00;}.c{fill:#e13958;}.d{fill:#36235d;}</style></defs><g transform="translate(205.839 231.099)"><path class="a" d="M169.118,208.467a9.5,9.5,0,0,0,6.451,2.758c2.66,0,4.187-1.3,4.187-3.358,0-2.892-2.325-3.722-4.853-5.019-3.224-1.659-6.416-3.39-6.416-7.312,0-4.388,4.056-6.748,8.144-6.748a9.726,9.726,0,0,1,6.815,2.828l-2.06,3.157a6.776,6.776,0,0,0-4.72-2.194c-1.83,0-3.724.829-3.724,2.755,0,4.758,11.336,3.594,11.336,12.465,0,3.791-3.291,7.28-9.009,7.28a12.729,12.729,0,0,1-8.412-3.556Z" transform="translate(-166.857 -188.654)"/><path class="a" d="M188.669,215.081c-7.644,0-13.728-5.95-13.728-13.129a13.452,13.452,0,0,1,13.728-13.164c7.58,0,13.629,5.686,13.629,13.263C202.3,209.2,196.048,215.081,188.669,215.081Zm0-22.434a9.134,9.134,0,0,0-9.206,9.172c0,4.917,4.053,9.439,8.974,9.439a9.307,9.307,0,0,0,.233-18.611Z" transform="translate(-151.419 -188.654)"/><path class="a" d="M186.93,214.112V188.983h4.257v21.273h10.536v3.855Z" transform="translate(-128.522 -188.282)"/><path class="a" d="M210.157,188.983h4.254V211.12c-1.9,1.993-5.153,3.588-10.2,3.588-6.451,0-10.141-3.256-10.141-9.8V188.983h4.257v13.594c0,6.247,1.5,8.374,6.646,8.374a8.851,8.851,0,0,0,5.188-1.464Z" transform="translate(-114.894 -188.282)"/><path class="a" d="M210.737,214.123V192.849h-7.411v-3.855H222.37v3.855h-7.379v21.273Z" transform="translate(-97.21 -188.261)"/><path class="a" d="M212.175,214.144V188.983h4.254v25.161Z" transform="translate(-80.311 -188.282)"/><path class="a" d="M229.958,215.081c-7.647,0-13.731-5.95-13.731-13.129a13.453,13.453,0,0,1,13.731-13.164c7.577,0,13.626,5.686,13.626,13.263C243.585,209.2,237.337,215.081,229.958,215.081Zm0-22.434a9.135,9.135,0,0,0-9.209,9.172c0,4.917,4.056,9.439,8.977,9.439a9.307,9.307,0,0,0,.233-18.611Z" transform="translate(-72.572 -188.654)"/><path class="a" d="M232.4,198.682l.067,15.922h-4.257l.035-25.862,18.681,17.22-.067-16.519h4.254l-.032,26.092Z" transform="translate(-49.697 -188.742)"/><path class="a" d="M240.719,208.467a9.481,9.481,0,0,0,6.448,2.758c2.659,0,4.187-1.3,4.187-3.358,0-2.892-2.325-3.722-4.854-5.019-3.224-1.659-6.416-3.39-6.416-7.312,0-4.388,4.056-6.748,8.144-6.748a9.727,9.727,0,0,1,6.815,2.828l-2.06,3.157a6.776,6.776,0,0,0-4.72-2.194c-1.83,0-3.724.829-3.724,2.755,0,4.758,11.336,3.594,11.336,12.465,0,3.791-3.291,7.28-9.009,7.28a12.72,12.72,0,0,1-8.409-3.556Z" transform="translate(-30.116 -188.654)"/></g><path class="b" d="M30.43,75.613a3.5,3.5,0,0,0-3.521,3.518V114.61a3.5,3.5,0,0,0,7,0V79.131A3.5,3.5,0,0,0,30.43,75.613ZM20.572,185.1a3.325,3.325,0,0,0-1.21-2.424,3.492,3.492,0,0,0-2.27-.861h-.236a3.508,3.508,0,0,0-3.285,3.716c.119,1.6.274,3.169.471,4.656A3.514,3.514,0,0,0,21,189.2C20.808,187.874,20.651,186.466,20.572,185.1Zm-3.6-140.736a3.5,3.5,0,0,0-3.521,3.48V171.993a3.5,3.5,0,1,0,7,0V47.839A3.488,3.488,0,0,0,16.976,44.359Zm108.231,164.48a55.966,55.966,0,0,1-87.383,13.184,3.529,3.529,0,0,0-2.427-.981h-.079a3.51,3.51,0,0,0-2.462,1.1,3.471,3.471,0,0,0-.94,2.386,3.556,3.556,0,0,0,1.056,2.543,62.966,62.966,0,0,0,97.163-12.791A40.914,40.914,0,0,1,125.207,208.839Zm10.21-63.6a39.133,39.133,0,0,1,6.1-3.48,75.5,75.5,0,0,0-11.54-14.514,3.493,3.493,0,0,0-2.462-1.016,3.372,3.372,0,0,0-2.465,1.056,3.435,3.435,0,0,0,.038,4.929A68.033,68.033,0,0,1,135.417,145.238ZM111.79,241.149a3.5,3.5,0,0,0-1.21,4.813,3.643,3.643,0,0,0,4.81,1.21,76.459,76.459,0,0,0,25.74-25.385,41.3,41.3,0,0,1-6.064-3.559A68.7,68.7,0,0,1,111.79,241.149ZM86.562,251.162a3.435,3.435,0,0,0-2.543-.7,70.273,70.273,0,0,1-40.8-7.981,3.189,3.189,0,0,0-1.682-.431,3.552,3.552,0,0,0-3.364,4.5,3.437,3.437,0,0,0,1.682,2.075,76.558,76.558,0,0,0,36.494,9.271,74.874,74.874,0,0,0,8.409-.471,3.466,3.466,0,0,0,2.348-1.289,3.574,3.574,0,0,0-.547-4.97Zm26.089-41.3a3.476,3.476,0,0,0-4.929.233,42.6,42.6,0,0,1-31.37,13.888,44.759,44.759,0,0,1-5.633-.393c-.154,0-.311-.038-.431-.038a3.516,3.516,0,0,0-.468,7,51.925,51.925,0,0,0,6.532.431,49.461,49.461,0,0,0,36.535-16.193,3.412,3.412,0,0,0-.236-4.929ZM3.518,69.9A3.529,3.529,0,0,0,0,73.422V82.34a3.531,3.531,0,0,0,3.518,3.521A3.525,3.525,0,0,0,7,82.34V73.422A3.523,3.523,0,0,0,3.518,69.9Zm112.968,63.249a62.853,62.853,0,0,0-40.134-14.473H57.773a3.5,3.5,0,1,0,0,7H76.352a56.067,56.067,0,0,1,35.674,12.867,3.6,3.6,0,0,0,4.929-.468A3.526,3.526,0,0,0,116.486,133.151ZM68.1,132.33l-10.679.079a3.672,3.672,0,0,0-2.465,1.094,3.46,3.46,0,0,0-.94,2.5,3.5,3.5,0,0,0,3.483,3.4h.079l10.717-.079a3.54,3.54,0,0,0,3.4-3.6A3.577,3.577,0,0,0,68.1,132.33ZM16.976,0a3.507,3.507,0,0,0-3.521,3.521v4.42a3.5,3.5,0,1,0,7,0V3.521A3.5,3.5,0,0,0,16.976,0Z"/><path class="c" d="M119.262,100.646A76.308,76.308,0,0,0,77.877,87.5c-.116,0-.154-.038-.233-.038l-4.5.038a3.5,3.5,0,1,0,.038,7l3.442-.041a68.8,68.8,0,0,1,38.685,11.971,3.554,3.554,0,0,0,4.851-.94A3.5,3.5,0,0,0,119.262,100.646ZM43.885,17.095a3.5,3.5,0,0,0-3.518,3.521v8.878a3.5,3.5,0,0,0,7,0V20.616A3.5,3.5,0,0,0,43.885,17.095ZM58.946,202.5c-1.173-.55-2.424-1.176-3.637-1.88a3.369,3.369,0,0,0-1.723-.468,3.322,3.322,0,0,0-.9.116,3.672,3.672,0,0,0-2.15,1.644,3.506,3.506,0,0,0-.352,2.66,3.67,3.67,0,0,0,1.641,2.15c1.37.783,2.817,1.487,4.266,2.153a3.7,3.7,0,0,0,1.446.311,3.5,3.5,0,0,0,1.408-6.687ZM62.193,87.622l-4.461.038a3.5,3.5,0,0,0,.041,7l4.458-.038a3.5,3.5,0,1,0-.038-7ZM104.868,230.9a3.508,3.508,0,0,0-4.5-2.072c-1.292.469-2.622.937-3.989,1.368a3.313,3.313,0,0,0-2.075,1.682,3.51,3.51,0,0,0-.273,2.659,3.56,3.56,0,0,0,3.364,2.505,4.574,4.574,0,0,0,1.018-.157c1.525-.468,3.012-.978,4.382-1.487a3.474,3.474,0,0,0,1.993-1.8A3.4,3.4,0,0,0,104.868,230.9Zm9.7-48.738a3.562,3.562,0,0,0,1.641,4.693,3.6,3.6,0,0,0,4.7-1.641c.079-.157.154-.352.233-.509a42.138,42.138,0,0,1-3.832-9.975A39.593,39.593,0,0,1,114.569,182.163Zm6.649-38.88a49.6,49.6,0,0,0-40.483-28.711,3.471,3.471,0,0,0-3.012,5.709,3.349,3.349,0,0,0,2.386,1.254,42.765,42.765,0,0,1,37.277,31.644A41.607,41.607,0,0,1,121.218,143.282Zm5.008-17.758a3.337,3.337,0,0,0-2.307-1.33,1.846,1.846,0,0,0-.471-.041,3.516,3.516,0,0,0-2.11.7,3.725,3.725,0,0,0-1.37,2.348,3.629,3.629,0,0,0,.7,2.581,54.48,54.48,0,0,1,4.656,7.12,43.391,43.391,0,0,1,4.967-5.4A55.558,55.558,0,0,0,126.225,125.524ZM29.767,194.68a56.149,56.149,0,0,1-5.712-11.109,3.507,3.507,0,0,0-4.5-2.034,3.548,3.548,0,0,0-2.034,4.539,64.748,64.748,0,0,0,6.416,12.477,3.557,3.557,0,0,0,4.851.978,3.43,3.43,0,0,0,.978-4.851ZM30.43,40.134a3.5,3.5,0,0,0-3.521,3.48v4.461a3.5,3.5,0,0,0,7,0V43.614A3.49,3.49,0,0,0,30.43,40.134ZM16.976,0a3.5,3.5,0,0,0-3.521,3.483v13.3a3.5,3.5,0,1,0,7,0V3.483A3.49,3.49,0,0,0,16.976,0ZM3.518,74.4A3.5,3.5,0,0,0,0,77.88V82.34a3.5,3.5,0,0,0,7,0V77.88A3.49,3.49,0,0,0,3.518,74.4ZM45.686,193.077a42.1,42.1,0,0,1-11.773-29.3V110.152a3.5,3.5,0,1,0-7,0v53.627A49.316,49.316,0,0,0,40.6,197.928a3.633,3.633,0,0,0,4.97.116,3.672,3.672,0,0,0,1.094-2.465A3.73,3.73,0,0,0,45.686,193.077ZM3.518,17.758A3.5,3.5,0,0,0,0,21.241v13.69a3.5,3.5,0,1,0,7,0V21.241A3.491,3.491,0,0,0,3.518,17.758Zm29.22,199.921A69.124,69.124,0,0,1,7,163.779V95.638a3.5,3.5,0,1,0-7,0v68.141a76.1,76.1,0,0,0,28.318,59.339,3.489,3.489,0,0,0,2.191.783,3.524,3.524,0,0,0,2.738-1.292,3.561,3.561,0,0,0-.509-4.929ZM43.885,39a3.5,3.5,0,0,0-3.518,3.521V90.985a3.5,3.5,0,0,0,7,0V42.52A3.5,3.5,0,0,0,43.885,39Z" transform="translate(0 17.758)"/><path class="d" d="M382.078,97.212V65.684a26.439,26.439,0,1,0-52.878,0V97.212a4.967,4.967,0,0,1-9.933,0V65.684a36.371,36.371,0,0,1,72.742,0V97.212a4.965,4.965,0,1,1-9.93,0ZM166.576,65.3a36.662,36.662,0,1,1,36.663,36.658A36.7,36.7,0,0,1,166.576,65.3Zm10.161,0a26.5,26.5,0,1,0,26.5-26.5A26.529,26.529,0,0,0,176.736,65.3Zm-61.654,36.412a36.669,36.669,0,0,1,6.246-73.03c19.481,1,34.754,17.664,34.754,37.954v3.734H93.4a26.522,26.522,0,0,0,42.348,15.817,5.04,5.04,0,0,1,6.61.354,5.155,5.155,0,0,1,1.553,3.957,5.088,5.088,0,0,1-1.891,3.677,36.458,36.458,0,0,1-22.632,7.783A35.5,35.5,0,0,1,115.082,101.716ZM93.4,60.232h52.022a26.5,26.5,0,0,0-52.022,0ZM.16,68.4,0,58.663V53.5a4.7,4.7,0,0,1,9.4,0V65.449c0,14.5,12.987,27.207,27.764,27.207,14.453,0,26.678-12.46,26.678-27.207a27.543,27.543,0,0,0-27.149-27.22H4.664A4.664,4.664,0,0,1,0,33.565V4.706A4.713,4.713,0,0,1,5.633.089,4.813,4.813,0,0,1,9.4,4.874V28.644H36.909A36.641,36.641,0,0,1,64,89.712,36.63,36.63,0,0,1,.16,68.4Zm251.89,28.3V65.166a36.376,36.376,0,0,1,57.883-29.328,4.966,4.966,0,1,1-5.879,8.006A26.44,26.44,0,0,0,261.98,65.166V96.693a4.965,4.965,0,1,1-9.93,0Z" transform="translate(39.264 116.149)"/></svg>