<svg id="Logo-beorn-blanc" xmlns="http://www.w3.org/2000/svg" width="118.196" height="70.625" viewBox="0 0 118.196 70.625">
  <g id="Groupe_36" data-name="Groupe 36" transform="translate(56.37 63.288)">
    <path id="Tracé_133" data-name="Tracé 133" d="M167.476,194.177a2.6,2.6,0,0,0,1.767.755c.728,0,1.147-.355,1.147-.92,0-.792-.637-1.019-1.329-1.375-.883-.454-1.757-.928-1.757-2a2.012,2.012,0,0,1,2.23-1.848,2.664,2.664,0,0,1,1.866.775l-.564.865a1.856,1.856,0,0,0-1.292-.6c-.5,0-1.02.227-1.02.755,0,1.3,3.1.984,3.1,3.414,0,1.038-.9,1.994-2.467,1.994a3.486,3.486,0,0,1-2.3-.974Z" transform="translate(-166.857 -188.751)" fill="#e02d4a"/>
    <path id="Tracé_134" data-name="Tracé 134" d="M178.7,195.988a3.6,3.6,0,1,1,0-7.2,3.631,3.631,0,0,1,3.732,3.632A3.688,3.688,0,0,1,178.7,195.988Zm0-6.144a2.5,2.5,0,0,0-2.521,2.512,2.584,2.584,0,0,0,2.457,2.585,2.549,2.549,0,0,0,.064-5.1Z" transform="translate(-168.499 -188.751)" fill="#e02d4a"/>
    <path id="Tracé_135" data-name="Tracé 135" d="M186.93,195.865v-6.882H188.1v5.826h2.885v1.056Z" transform="translate(-170.935 -188.791)" fill="#e02d4a"/>
    <path id="Tracé_136" data-name="Tracé 136" d="M198.473,188.983h1.165v6.062a3.713,3.713,0,0,1-2.795.983,2.448,2.448,0,0,1-2.777-2.685v-4.36h1.166v3.723c0,1.711.41,2.293,1.82,2.293a2.424,2.424,0,0,0,1.421-.4Z" transform="translate(-172.384 -188.791)" fill="#e02d4a"/>
    <path id="Tracé_137" data-name="Tracé 137" d="M205.356,195.876V190.05h-2.03v-1.056h5.215v1.056h-2.021v5.826Z" transform="translate(-174.265 -188.793)" fill="#e02d4a"/>
    <path id="Tracé_138" data-name="Tracé 138" d="M212.175,195.873v-6.89h1.165v6.89Z" transform="translate(-176.063 -188.791)" fill="#e02d4a"/>
    <path id="Tracé_139" data-name="Tracé 139" d="M219.987,195.988a3.6,3.6,0,1,1,0-7.2,3.631,3.631,0,0,1,3.732,3.632A3.688,3.688,0,0,1,219.987,195.988Zm0-6.144a2.5,2.5,0,0,0-2.522,2.512,2.584,2.584,0,0,0,2.458,2.585,2.549,2.549,0,0,0,.064-5.1Z" transform="translate(-176.886 -188.751)" fill="#e02d4a"/>
    <path id="Tracé_140" data-name="Tracé 140" d="M229.352,191.464l.018,4.36h-1.166l.01-7.082,5.116,4.716-.018-4.524h1.165l-.009,7.145Z" transform="translate(-179.32 -188.742)" fill="#e02d4a"/>
    <path id="Tracé_141" data-name="Tracé 141" d="M239.077,194.177a2.6,2.6,0,0,0,1.766.755c.728,0,1.147-.355,1.147-.92,0-.792-.637-1.019-1.329-1.375-.883-.454-1.757-.928-1.757-2a2.012,2.012,0,0,1,2.23-1.848,2.664,2.664,0,0,1,1.866.775l-.564.865a1.856,1.856,0,0,0-1.292-.6c-.5,0-1.02.227-1.02.755,0,1.3,3.1.984,3.1,3.414,0,1.038-.9,1.994-2.467,1.994a3.484,3.484,0,0,1-2.3-.974Z" transform="translate(-181.402 -188.751)" fill="#e02d4a"/>
  </g>
  <g id="Groupe_37" data-name="Groupe 37">
    <path id="Union_4" data-name="Union 4" d="M8.334,20.707a.96.96,0,0,0-.964.963v9.716a.959.959,0,0,0,1.918,0V21.67A.958.958,0,0,0,8.334,20.707ZM5.634,50.69a.911.911,0,0,0-.331-.664.956.956,0,0,0-.622-.236H4.616a.961.961,0,0,0-.9,1.018c.033.439.075.868.129,1.275a.962.962,0,0,0,1.906-.268C5.7,51.451,5.655,51.065,5.634,50.69ZM4.649,12.148a.958.958,0,0,0-.964.953v34a.959.959,0,1,0,1.917,0v-34A.955.955,0,0,0,4.649,12.148Zm29.64,45.044A15.327,15.327,0,0,1,10.358,60.8a.966.966,0,0,0-.665-.269H9.672a.961.961,0,0,0-.674.3.951.951,0,0,0-.257.653.974.974,0,0,0,.289.7,17.244,17.244,0,0,0,26.609-3.5A11.2,11.2,0,0,1,34.289,57.192Zm2.8-17.418a10.716,10.716,0,0,1,1.671-.953,20.676,20.676,0,0,0-3.16-3.975.957.957,0,0,0-.674-.278.923.923,0,0,0-.675.289.941.941,0,0,0,.01,1.35A18.631,18.631,0,0,1,37.085,39.774ZM30.614,66.04a.958.958,0,0,0-.331,1.318,1,1,0,0,0,1.317.331,20.939,20.939,0,0,0,7.049-6.952,11.309,11.309,0,0,1-1.661-.975A18.813,18.813,0,0,1,30.614,66.04Zm-6.909,2.742a.941.941,0,0,0-.7-.192A19.245,19.245,0,0,1,11.836,66.4a.873.873,0,0,0-.461-.118.973.973,0,0,0-.921,1.232.941.941,0,0,0,.461.568,20.966,20.966,0,0,0,9.994,2.539,20.5,20.5,0,0,0,2.3-.129.949.949,0,0,0,.643-.353.979.979,0,0,0-.15-1.361ZM30.85,57.471a.952.952,0,0,0-1.35.064,11.665,11.665,0,0,1-8.591,3.8,12.257,12.257,0,0,1-1.543-.108c-.042,0-.085-.01-.118-.01a.963.963,0,0,0-.128,1.917,14.221,14.221,0,0,0,1.789.118,13.545,13.545,0,0,0,10.005-4.435.934.934,0,0,0-.065-1.35ZM.963,19.143A.966.966,0,0,0,0,20.107v2.442a.967.967,0,0,0,.963.964.965.965,0,0,0,.954-.964V20.107A.965.965,0,0,0,.963,19.143ZM31.9,36.464A17.213,17.213,0,0,0,20.909,32.5H15.822a.959.959,0,1,0,0,1.918h5.088a15.354,15.354,0,0,1,9.769,3.524.986.986,0,0,0,1.35-.128A.966.966,0,0,0,31.9,36.464ZM18.65,36.239l-2.924.022a1.006,1.006,0,0,0-.675.3.947.947,0,0,0-.257.685.958.958,0,0,0,.954.932h.022l2.935-.022a.969.969,0,0,0,.932-.986A.98.98,0,0,0,18.65,36.239ZM4.649,0a.96.96,0,0,0-.964.964v1.21a.959.959,0,1,0,1.917,0V.964A.958.958,0,0,0,4.649,0Z" fill="#f27c00"/>
    <path id="Union_5" data-name="Union 5" d="M32.661,27.562a20.9,20.9,0,0,0-11.334-3.6c-.032,0-.042-.01-.064-.01l-1.232.01a.959.959,0,1,0,.01,1.918l.943-.011a18.84,18.84,0,0,1,10.594,3.278.973.973,0,0,0,1.328-.257A.959.959,0,0,0,32.661,27.562ZM12.018,4.682a.96.96,0,0,0-.963.964V8.077a.959.959,0,0,0,1.917,0V5.646A.958.958,0,0,0,12.018,4.682Zm4.125,50.776c-.321-.151-.664-.322-1-.515a.923.923,0,0,0-.472-.128.91.91,0,0,0-.246.032,1.006,1.006,0,0,0-.589.45.96.96,0,0,0-.1.728,1,1,0,0,0,.449.589c.375.214.771.407,1.168.59a1.013,1.013,0,0,0,.4.085.958.958,0,0,0,.386-1.831ZM17.032,24l-1.222.01a.959.959,0,0,0,.011,1.917l1.221-.01A.959.959,0,1,0,17.032,24ZM28.719,63.234a.961.961,0,0,0-1.232-.567c-.354.128-.718.257-1.092.375a.907.907,0,0,0-.568.461.961.961,0,0,0-.075.728.975.975,0,0,0,.921.686,1.252,1.252,0,0,0,.279-.043c.418-.128.825-.268,1.2-.407a.951.951,0,0,0,.546-.492A.932.932,0,0,0,28.719,63.234Zm2.657-13.347a.976.976,0,0,0,.449,1.285.985.985,0,0,0,1.286-.449c.022-.043.042-.1.064-.139a11.54,11.54,0,0,1-1.049-2.732A10.843,10.843,0,0,1,31.375,49.886ZM33.2,39.239A13.584,13.584,0,0,0,22.11,31.376a.951.951,0,0,0-.825,1.563.917.917,0,0,0,.653.343,11.711,11.711,0,0,1,10.209,8.666A11.394,11.394,0,0,1,33.2,39.239Zm1.371-4.863a.914.914,0,0,0-.632-.364A.506.506,0,0,0,33.807,34a.963.963,0,0,0-.578.193,1.02,1.02,0,0,0-.375.643.994.994,0,0,0,.193.707,14.919,14.919,0,0,1,1.275,1.95,11.883,11.883,0,0,1,1.36-1.478A15.215,15.215,0,0,0,34.568,34.376ZM8.152,53.314a15.377,15.377,0,0,1-1.564-3.042.96.96,0,0,0-1.232-.557A.972.972,0,0,0,4.8,50.958a17.732,17.732,0,0,0,1.757,3.417.974.974,0,0,0,1.328.268.939.939,0,0,0,.268-1.328Zm.182-42.323a.958.958,0,0,0-.964.953v1.222a.959.959,0,0,0,1.918,0V11.944A.956.956,0,0,0,8.334,10.991ZM4.649,0a.958.958,0,0,0-.964.954V4.6A.959.959,0,1,0,5.6,4.6V.954A.956.956,0,0,0,4.649,0ZM.963,20.375A.957.957,0,0,0,0,21.328v1.222a.959.959,0,0,0,1.917,0V21.328A.956.956,0,0,0,.963,20.375Zm11.548,32.5a11.528,11.528,0,0,1-3.224-8.024V30.166a.959.959,0,1,0-1.918,0V44.852A13.506,13.506,0,0,0,11.119,54.2a1,1,0,0,0,1.361.032,1.006,1.006,0,0,0,.3-.675A1.021,1.021,0,0,0,12.511,52.875ZM.963,4.863A.958.958,0,0,0,0,5.817V9.566a.959.959,0,1,0,1.917,0V5.817A.956.956,0,0,0,.963,4.863Zm8,54.75A18.93,18.93,0,0,1,1.917,44.852V26.191a.959.959,0,1,0-1.917,0V44.852A20.84,20.84,0,0,0,7.755,61.1a.956.956,0,0,0,.6.214.965.965,0,0,0,.75-.354.975.975,0,0,0-.139-1.35ZM12.018,10.68a.96.96,0,0,0-.963.964V24.917a.959.959,0,0,0,1.917,0V11.644A.958.958,0,0,0,12.018,10.68Z" transform="translate(0 4.863)" fill="#e13958"/>
  </g>
  <path id="Union_6" data-name="Union 6" d="M104.634,26.622V17.988a7.241,7.241,0,1,0-14.481,0v8.634a1.36,1.36,0,0,1-2.72,0V17.988a9.96,9.96,0,0,1,19.921,0v8.634a1.36,1.36,0,1,1-2.72,0ZM45.618,17.884a10.04,10.04,0,1,1,10.04,10.039A10.052,10.052,0,0,1,45.618,17.884Zm2.783,0a7.258,7.258,0,1,0,7.258-7.258A7.265,7.265,0,0,0,48.4,17.884ZM31.516,27.856a10.042,10.042,0,0,1,1.71-20A10.229,10.229,0,0,1,42.744,18.25v1.023H25.579a7.263,7.263,0,0,0,11.6,4.332,1.38,1.38,0,0,1,1.81.1,1.412,1.412,0,0,1,.425,1.084,1.393,1.393,0,0,1-.518,1.007,9.984,9.984,0,0,1-6.2,2.131A9.722,9.722,0,0,1,31.516,27.856ZM25.579,16.495H39.826a7.257,7.257,0,0,0-14.247,0ZM.044,18.731,0,16.065V14.653a1.287,1.287,0,0,1,2.573,0v3.271a7.726,7.726,0,0,0,7.6,7.451,7.453,7.453,0,0,0-.129-14.9H1.277A1.277,1.277,0,0,1,0,9.192v-7.9A1.291,1.291,0,0,1,1.543.024a1.318,1.318,0,0,1,1.031,1.31v6.51h7.535a10.034,10.034,0,0,1,7.419,16.724A10.031,10.031,0,0,1,.044,18.731ZM69.025,26.48V17.846A9.962,9.962,0,0,1,84.877,9.815a1.36,1.36,0,1,1-1.61,2.192,7.241,7.241,0,0,0-11.522,5.839V26.48a1.36,1.36,0,0,1-2.72,0Z" transform="translate(10.753 31.808)" fill="#fff"/>
</svg>
