<svg id="picto-Supprimer" xmlns="http://www.w3.org/2000/svg" width="28.469" height="30.349" viewBox="0 0 28.469 30.349">
  <path id="Tracé_222" data-name="Tracé 222" d="M12.493,36.349a2.646,2.646,0,0,1-1.885-.743,2.376,2.376,0,0,1-.784-1.786V9.794H8V7.265h8.363V6H28.106V7.265h8.363V9.794H34.645V33.82a2.367,2.367,0,0,1-.8,1.77,2.631,2.631,0,0,1-1.868.759ZM31.976,9.794H12.493V33.82H31.976Zm-14.768,20.4h2.669V13.376H17.208Zm7.384,0h2.669V13.376H24.592Zm-12.1-20.4v0Z" transform="translate(-8 -6)" opacity="0.285"/>
</svg>
