<svg xmlns="http://www.w3.org/2000/svg" width="27.486" height="34.358" viewBox="0 0 27.486 34.358"><defs><style>.a{fill:current;}</style></defs><path class="a" d="M21.747,20.749a3,3,0,0,0,2.119-5.132,3,3,0,1,0-4.245,4.252A2.908,2.908,0,0,0,21.747,20.749Zm0,14.216a50.321,50.321,0,0,0,8.439-9.427q2.728-4.23,2.727-7.451A11.2,11.2,0,0,0,29.676,9.8a10.8,10.8,0,0,0-7.932-3.225A10.8,10.8,0,0,0,13.811,9.8a11.2,11.2,0,0,0-3.234,8.285q0,3.221,2.792,7.451A54.646,54.646,0,0,0,21.743,34.965Zm0,3.393a57.1,57.1,0,0,1-10.329-10.93Q8,22.381,8,18.087A13.285,13.285,0,0,1,12.144,7.822a13.963,13.963,0,0,1,19.2,0,13.285,13.285,0,0,1,4.144,10.264q0,4.294-3.414,9.341A57.1,57.1,0,0,1,21.743,38.358Z" transform="translate(-8 -4)"/></svg>