<svg xmlns="http://www.w3.org/2000/svg" width="178.948" height="178.953" viewBox="0 0 178.948 178.953"><defs><style>.a{fill:#fff;}</style></defs><path class="a" d="M463.226-115.942a89.575,89.575,0,0,0-89.472,89.476,89.575,89.575,0,0,0,89.472,89.476A89.576,89.576,0,0,0,552.7-26.466,89.576,89.576,0,0,0,463.226-115.942Zm0,170.39a81,81,0,0,1-80.909-80.914,81,81,0,0,1,80.909-80.914A81,81,0,0,1,544.14-26.466,81,81,0,0,1,463.226,54.448Z" transform="translate(-373.754 115.942)"/><path class="a" d="M466.544-69.679H440.83V-95.393a10.4,10.4,0,0,0-10.4-10.4,10.4,10.4,0,0,0-10.4,10.4v25.714H394.317a10.4,10.4,0,0,0-10.4,10.4,10.4,10.4,0,0,0,10.4,10.4h25.714v25.714a10.4,10.4,0,0,0,10.4,10.4,10.4,10.4,0,0,0,10.4-10.4V-48.875h25.714a10.4,10.4,0,0,0,10.4-10.4A10.4,10.4,0,0,0,466.544-69.679Z" transform="translate(-340.402 149.248)"/></svg>