<svg xmlns="http://www.w3.org/2000/svg" width="69.993" height="69.293" viewBox="0 0 69.993 69.293"><defs><style>.a{fill:current;}.b,.d{fill:none;}.b{stroke:current;stroke-width:3px;}.c{stroke:none;}</style></defs><path class="a" d="M38.647,40.824a26.09,26.09,0,0,1-11.729-2.9,39.817,39.817,0,0,1-10.471-7.545A39.817,39.817,0,0,1,8.9,19.905,26.09,26.09,0,0,1,6,8.176,2.126,2.126,0,0,1,8.176,6h6.771a1.718,1.718,0,0,1,1.175.459,2.113,2.113,0,0,1,.663,1.233l1.306,6.094a3.478,3.478,0,0,1-.024,1.233,1.861,1.861,0,0,1-.508.943l-4.837,4.885a40.155,40.155,0,0,0,6.07,7.835,33.561,33.561,0,0,0,7.618,5.659l4.595-4.74a2.671,2.671,0,0,1,1.112-.75,2.236,2.236,0,0,1,1.258-.073l5.756,1.258a2.146,2.146,0,0,1,1.217.734,2.038,2.038,0,0,1,.476,1.346v6.529a2.126,2.126,0,0,1-2.176,2.176ZM11.272,18.188l3.918-3.966L14.077,8.9H8.9a16.648,16.648,0,0,0,.58,4.135A39.033,39.033,0,0,0,11.272,18.188ZM29.119,35.745a24.174,24.174,0,0,0,4.3,1.5,22.722,22.722,0,0,0,4.5.677V32.747L32.94,31.731Z" transform="translate(11.584 10.977)"/><g class="b"><ellipse class="c" cx="34.996" cy="34.646" rx="34.996" ry="34.646"/><ellipse class="d" cx="34.996" cy="34.646" rx="33.496" ry="33.146"/></g></svg>