<svg xmlns="http://www.w3.org/2000/svg" xmlns:xlink="http://www.w3.org/1999/xlink" width="140" height="140" viewBox="0 0 140 140"><defs><style>.a{fill:none;}.b{fill:#ffb973;}.c{clip-path:url(#a);}.d{fill:#ab5562;}</style><clipPath id="a"><circle class="a" cx="70" cy="70" r="70" transform="translate(0.158 0.438)"/></clipPath></defs><circle class="b" cx="70" cy="70" r="70" transform="translate(0)"/><g transform="translate(-0.158 -0.438)"><g class="c"><g transform="translate(26.14 21.797)"><path class="d" d="M298.4,273.782c-.193-.753-.481-2.014-.818-3.646a25.649,25.649,0,0,0,2.777,3.2,18.641,18.641,0,0,0,27.122,0,25.924,25.924,0,0,0,2.785-3.211c-.338,1.639-.625,2.893-.817,3.653h0a19.851,19.851,0,0,0,16.341-21.221c-.87-10.306-1.775-21.928-2.643-25.648-2.4-10.282-9.049-18.906-16.314-20.935-12.719-3.554-18.5,2.657-18.5,2.657h0a15.849,15.849,0,0,0-18.045,4.762c-2.6,3.287-4.534,7.8-5.6,13.515-.7,3.755-1.766,15.344-2.633,25.651A19.851,19.851,0,0,0,298.4,273.782Zm-2.423-12.464a38.63,38.63,0,0,1-1.687-5.516,3.769,3.769,0,0,1-3.964-3.962v-4.06a3.776,3.776,0,0,1,3.768-3.96h.016c-.007-.055-.016-.112-.027-.166a60.418,60.418,0,0,1,.309-9.91c4.518-.842,10.855-2.738,14.656-6.986,3.511,8.4,18.045,10.77,24.739,11.425.057,1.747.039,3.584-.033,5.471-.011.054-.02.111-.028.166h.017a3.774,3.774,0,0,1,3.768,3.96v4.06a3.769,3.769,0,0,1-3.964,3.962,38.724,38.724,0,0,1-1.687,5.516c-3.843,9.907-10.894,14.857-17.941,14.857S299.821,271.226,295.979,261.319Z" transform="translate(-270.915 -204.88)"/><path class="d" d="M268.916,344.8H352.75l1.17-12.648c.107-13-2.033-16.01-7.4-21.192-5.6-5.4-13.355-6.576-21.114-7.764a47.272,47.272,0,0,1-14.483,25.007A39.6,39.6,0,0,1,296.453,303.2a43.581,43.581,0,0,0-11.37,2.3,23.708,23.708,0,0,0-9.745,5.463c-5.036,4.87-7.645,8.067-7.4,21.192Z" transform="translate(-267.919 -225.817)"/><path class="d" d="M306.95,290.64v8.609s2.35,12.259,11.968,21.242c0,0,12.083-11.746,12.083-21.242v-9.972a12.059,12.059,0,0,1-10.483,6.373C313.117,295.65,306.95,290.64,306.95,290.64Z" transform="translate(-276.231 -222.852)"/></g></g></g></svg>