<svg xmlns="http://www.w3.org/2000/svg" width="28.997" height="32.174" viewBox="0 0 28.997 32.174"><defs><style>.a{fill:#fff;}</style></defs><path class="a" d="M30.412,36.174a4.514,4.514,0,0,1-4.524-5.254,3.335,3.335,0,0,1,.181-.7L13.883,23.144a4.6,4.6,0,0,1-1.488,1.106,4.158,4.158,0,0,1-1.81.422A4.566,4.566,0,0,1,6,20.087,4.567,4.567,0,0,1,10.585,15.5a4.445,4.445,0,0,1,1.77.362,4.853,4.853,0,0,1,1.528,1.046l12.186-7a2.864,2.864,0,0,1-.181-.64,4.1,4.1,0,0,1-.06-.687,4.419,4.419,0,0,1,1.338-3.247,4.611,4.611,0,0,1,6.5,0A4.421,4.421,0,0,1,35,8.585a4.564,4.564,0,0,1-4.585,4.585,5.378,5.378,0,0,1-1.8-.3,3.436,3.436,0,0,1-1.461-.985L14.969,18.639a7.371,7.371,0,0,1,.141.744,5.187,5.187,0,0,1,.06.713,3.182,3.182,0,0,1-.06.6c-.04.208-.087.419-.141.634l12.186,6.917a4.771,4.771,0,0,1,1.408-.9A4.7,4.7,0,0,1,30.412,27a4.593,4.593,0,0,1,3.248,7.833A4.424,4.424,0,0,1,30.412,36.174Zm0-25.418a2.132,2.132,0,0,0,2.17-2.173,2.172,2.172,0,1,0-4.343,0,2.132,2.132,0,0,0,2.173,2.17Zm-19.827,11.5a2.172,2.172,0,1,0,0-4.344,2.172,2.172,0,1,0,0,4.344Zm19.827,11.5a2.132,2.132,0,1,0-1.548-.623A2.1,2.1,0,0,0,30.414,33.761Z" transform="translate(-6 -4)"/></svg>