<svg xmlns="http://www.w3.org/2000/svg" width="69.993" height="69.293" viewBox="0 0 69.993 69.293"><defs><style>.a,.d{fill:current;}.a{stroke:current;stroke-width:3px;}.b{fill:#830e7e;}.c{stroke:none;}</style></defs><g class="a"><ellipse class="c" cx="34.996" cy="34.646" rx="34.996" ry="34.646"/><ellipse class="d" cx="34.996" cy="34.646" rx="33.496" ry="33.146"/></g><path class="b" d="M13.477,18.97a1.647,1.647,0,1,0-1.2-.482A1.623,1.623,0,0,0,13.477,18.97Zm7.422,0a1.647,1.647,0,1,0-1.2-.482A1.623,1.623,0,0,0,20.9,18.97Zm7.129,0a1.647,1.647,0,1,0-1.2-.482A1.623,1.623,0,0,0,28.028,18.97ZM4,37.547V6.516a2.414,2.414,0,0,1,.755-1.761A2.414,2.414,0,0,1,6.516,4H35.031a2.414,2.414,0,0,1,1.761.755,2.414,2.414,0,0,1,.755,1.761V28.322a2.58,2.58,0,0,1-2.516,2.516H10.709Zm5.619-9.225H35.031V6.516H6.516v25.16Zm-3.1,0v0Z" transform="translate(14.223 13.252)"/></svg>