<svg id="Picto-adresse" xmlns="http://www.w3.org/2000/svg" width="69.993" height="69.293" viewBox="0 0 69.993 69.293">
  <g id="Ellipse_19" data-name="Ellipse 19" fill="none" stroke="current" stroke-width="3">
    <ellipse cx="34.996" cy="34.646" rx="34.996" ry="34.646" stroke="none"/>
    <ellipse cx="34.996" cy="34.646" rx="33.496" ry="33.146" fill="none"/>
  </g>
  <path id="Tracé_91" data-name="Tracé 91" d="M23.822,23.279a3.458,3.458,0,0,0,2.439-5.907,3.458,3.458,0,1,0-4.886,4.894A3.347,3.347,0,0,0,23.822,23.279Zm0,16.362a57.919,57.919,0,0,0,9.713-10.85q3.139-4.869,3.139-8.577a12.892,12.892,0,0,0-3.722-9.535,12.43,12.43,0,0,0-9.13-3.712,12.43,12.43,0,0,0-9.13,3.712,12.892,12.892,0,0,0-3.722,9.535q0,3.707,3.213,8.577A62.9,62.9,0,0,0,23.818,39.641Zm0,3.905A65.721,65.721,0,0,1,11.93,30.965Q8,25.157,8,20.214,8,12.8,12.77,8.4a16.072,16.072,0,0,1,22.1,0q4.771,4.4,4.77,11.814,0,4.943-3.93,10.752A65.721,65.721,0,0,1,23.818,43.546Z" transform="translate(11.178 10.83)" fill="current"/>
</svg>
