<svg xmlns="http://www.w3.org/2000/svg" width="27.58" height="26.329" viewBox="0 0 27.58 26.329"><defs><style>.a{fill:current;}</style></defs><path class="a" d="M24.915,28.329H10.3V11.479L19.451,2l1.284,1.02a.99.99,0,0,1,.3.461,2.31,2.31,0,0,1,.1.724v.329l-1.481,6.944h9.841a2.025,2.025,0,0,1,1.975,1.975v2.693a2.455,2.455,0,0,0,.049.482.791.791,0,0,1-.049.477l-4.147,9.544a2.772,2.772,0,0,1-.974,1.189A2.412,2.412,0,0,1,24.915,28.329ZM12.277,26.355H25.343l4.147-9.841V13.453H17.213l1.744-8.195L12.277,12.3Zm0-14.053v0ZM10.3,11.479v1.975H5.925v12.9H10.3v1.975H3.95V11.479Z" transform="translate(-3.95 -2)"/></svg>