<svg id="Picto-dupliquer" xmlns="http://www.w3.org/2000/svg" width="27.66" height="30.349" viewBox="0 0 27.66 30.349">
  <path id="Tracé_221" data-name="Tracé 221" d="M29.477,28.211H10.551a2.152,2.152,0,0,1-1.529-.621,1.937,1.937,0,0,1-.655-1.448V4.069a1.937,1.937,0,0,1,.655-1.448A2.153,2.153,0,0,1,10.551,2H23.217l8.444,8v16.14a1.937,1.937,0,0,1-.655,1.448A2.152,2.152,0,0,1,29.477,28.211ZM22.125,10.9V4.069H10.551V26.141H29.477V10.9ZM6.184,32.349a2.153,2.153,0,0,1-1.529-.621A1.937,1.937,0,0,1,4,30.28V8.932H6.184V30.28H24.309v2.069Zm4.367-28.28v0Z" transform="translate(-4 -2)" opacity="0.285"/>
</svg>
