<svg xmlns="http://www.w3.org/2000/svg" width="27.491" height="29.647" viewBox="0 0 27.491 29.647"><defs><style>.a{fill:current;}</style></defs><path class="a" d="M6.026,31.647V29.625H28.665v2.021Zm0-27.625V2H28.665V4.021Zm11.32,14.015a3.913,3.913,0,0,0,3.975-3.975,3.913,3.913,0,0,0-3.975-3.975,3.913,3.913,0,0,0-3.975,3.975,3.913,3.913,0,0,0,3.975,3.975ZM5.621,27.6A1.939,1.939,0,0,1,4.206,27,1.939,1.939,0,0,1,3.6,25.583V8.064a1.907,1.907,0,0,1,.606-1.449,2,2,0,0,1,1.415-.573H29.069a2.073,2.073,0,0,1,2.021,2.021V25.583A2.073,2.073,0,0,1,29.069,27.6Zm2.965-2.021A11.025,11.025,0,0,1,12.662,22.4a11.3,11.3,0,0,1,4.666-1.061A11.648,11.648,0,0,1,22.045,22.4a10.377,10.377,0,0,1,4.06,3.184h2.965V8.064H5.621V25.583Zm3.167,0H23.005a8.124,8.124,0,0,0-2.442-1.617,8.02,8.02,0,0,0-3.217-.606,7.779,7.779,0,0,0-3.184.606A8.248,8.248,0,0,0,11.753,25.583Zm5.6-9.568a1.833,1.833,0,0,1-1.37-.573,2,2,0,0,1-.005-2.763,1.918,1.918,0,0,1,2.734,0,2,2,0,0,1,.005,2.763A1.816,1.816,0,0,1,17.351,16.015Z" transform="translate(-3.6 -2)"/></svg>