<svg xmlns="http://www.w3.org/2000/svg" width="69.993" height="69.293" viewBox="0 0 69.993 69.293"><defs>
<style>.a{fill:current;}.b,.d{fill:none;}.b{stroke:current;stroke-width:3px;}.c{stroke:none;}</style>
</defs><g class="a"><ellipse class="c" cx="34.996" cy="34.646" rx="34.996" ry="34.646"/><ellipse class="d" cx="34.996" cy="34.646" rx="33.496" ry="33.146"/></g><path class="b" d="M6.69,36.7a2.581,2.581,0,0,1-1.883-.807A2.581,2.581,0,0,1,4,34.007V10.69a2.581,2.581,0,0,1,.807-1.883A2.581,2.581,0,0,1,6.69,8H37.181a2.758,2.758,0,0,1,2.69,2.69V34.007a2.758,2.758,0,0,1-2.69,2.69ZM21.936,23.156l-15.245-10v20.85H37.181V13.156Zm0-2.69L37,10.69H6.915ZM6.69,13.156v0Z" transform="translate(13.061 11.307)"/></svg>