<svg xmlns="http://www.w3.org/2000/svg" width="26.506" height="26.506" viewBox="0 0 26.506 26.506"><defs><style>.a{fill:current;}</style></defs><path class="a" d="M8.209,32.506a2.119,2.119,0,0,1-1.546-.663A2.119,2.119,0,0,1,6,30.3V8.209a2.119,2.119,0,0,1,.663-1.546A2.119,2.119,0,0,1,8.209,6H30.3a2.119,2.119,0,0,1,1.546.663,2.119,2.119,0,0,1,.663,1.546V30.3A2.265,2.265,0,0,1,30.3,32.506Zm0-2.209H30.3V8.209H8.209Zm2.062-3.571h18l-5.412-7.215L18,25.806,14.578,21.13ZM8.209,30.3v0Z" transform="translate(-6 -6)"/></svg>