<svg xmlns="http://www.w3.org/2000/svg" xmlns:xlink="http://www.w3.org/1999/xlink" width="140.789" height="140.397" viewBox="0 0 140.789 140.397"><defs><style>.a{fill:none;}.b{fill:#979ef5;}.c{clip-path:url(#a);}.d{fill:#635087;}</style><clipPath id="a"><ellipse class="a" cx="69.986" cy="70.198" rx="69.986" ry="70.198"/></clipPath></defs><ellipse class="b" cx="69.986" cy="70.198" rx="69.986" ry="70.198"/><g transform="translate(0.816)"><g class="c"><g transform="translate(23.164 20.837)"><path class="d" d="M647.206,357.507c0-31.395,0-34.158-8.156-41.01-5.947-5-14.2-6.079-22.465-7.184a35.065,35.065,0,0,1-1.643,11.933,35.584,35.584,0,0,1-9.837,15.266l1.822-11.812-2.713-9.293,3.446-5.151-2.429-3.088h-8.495l-2.427,3.088,3.442,5.151-2.712,9.293,1.759,11.391a47.317,47.317,0,0,1-11.009-26.776,52.25,52.25,0,0,0-12.1,2.132,26.46,26.46,0,0,0-10.365,5.053c-8.155,6.849-8.981,8.912-8.981,41.007Z" transform="translate(-554.343 -231.73)"/><path class="d" d="M607.164,211.319c-26.624,0-24.052,32.311-24.052,32.311-.1,34.816,18.331,37.793,24.051,37.967,5.722-.173,24.526-3.151,24.421-37.967C631.584,248.523,634.09,211.319,607.164,211.319Zm7.65,58.7a9.617,9.617,0,0,1-15.3,0,3.393,3.393,0,0,1,2.377-5.76h10.544A3.394,3.394,0,0,1,614.814,270.021Zm15.512-23.813c-.089,5.973-4.757,15.436-9.212,15.436-.25,0-4.683-2.212-8.205-2.212h-11.49c-3.518,0-7.956,2.212-8.2,2.212-4.457,0-9.124-9.463-9.214-15.436-.145-9.606,2.032-20.976,9.358-22.9l13.8,3.1,13.806-3.1C628.295,225.232,630.472,236.6,630.326,246.208Z" transform="translate(-560.523 -211.319)"/><path class="d" d="M593.415,308.214V302l-3.66,8.65Z" transform="translate(-561.968 -230.629)"/><path class="d" d="M633.471,308.214l-.5-6.215,4.163,8.65Z" transform="translate(-571.273 -230.629)"/><path class="d" d="M3.467,0H3.58a0,0,0,0,1,0,0V13.077a0,0,0,0,1,0,0H3.467A3.467,3.467,0,0,1,0,9.61V3.467A3.467,3.467,0,0,1,3.467,0Z" transform="translate(18.945 28.829) rotate(-6.534)"/><path class="d" d="M3.467,0h.122a0,0,0,0,1,0,0V13.079a0,0,0,0,1,0,0H3.467A3.467,3.467,0,0,1,0,9.612V3.467A3.467,3.467,0,0,1,3.467,0Z" transform="translate(72.823 41.823) rotate(-173.466)"/></g></g></g></svg>