<svg id="Picto-web" xmlns="http://www.w3.org/2000/svg" width="32.824" height="32.824" viewBox="0 0 32.824 32.824">
  <path id="Tracé_87" data-name="Tracé 87" d="M16.884,33.911a19.46,19.46,0,0,1-1.764-3.385,23.1,23.1,0,0,1-1.149-3.959h-6.2a13.536,13.536,0,0,0,9.109,7.344ZM6.954,24.1h6.565q-.123-.985-.164-1.785t-.041-1.826q0-.862.021-1.744t.144-1.99H6.954a11.572,11.572,0,0,0-.39,1.826,15.948,15.948,0,0,0-.1,1.908,14.422,14.422,0,0,0,.1,1.846A11.971,11.971,0,0,0,6.954,24.1ZM7.775,14.3h6.155a24.6,24.6,0,0,1,1.231-4.062,19.636,19.636,0,0,1,1.764-3.364,18.04,18.04,0,0,0-5.539,2.852A14.712,14.712,0,0,0,7.775,14.3Zm8.7,0h7.919a20.4,20.4,0,0,0-1.58-4.534,13.642,13.642,0,0,0-2.4-3.385,13.963,13.963,0,0,0-2.4,3.488A20.839,20.839,0,0,0,16.473,14.3Zm10.463,0h6.114a14.689,14.689,0,0,0-3.8-4.554,16.441,16.441,0,0,0-5.313-2.831,18.624,18.624,0,0,1,1.744,3.364A29.736,29.736,0,0,1,26.936,14.3ZM20.412,36.824a16.534,16.534,0,0,1-6.442-1.251A16.025,16.025,0,0,1,8.76,32.106a16.345,16.345,0,0,1-3.488-5.19A16.165,16.165,0,0,1,4,20.494a16.462,16.462,0,0,1,1.272-6.462A16.229,16.229,0,0,1,8.76,8.8,16.577,16.577,0,0,1,13.97,5.292,16.082,16.082,0,0,1,20.412,4a16.082,16.082,0,0,1,6.442,1.292A16.577,16.577,0,0,1,32.065,8.8a16.229,16.229,0,0,1,3.488,5.231,16.461,16.461,0,0,1,1.272,6.462q0,.7-.041,1.4a12.054,12.054,0,0,1-.164,1.4H34.075a10.112,10.112,0,0,0,.226-1.333q.062-.636.062-1.457a15.947,15.947,0,0,0-.1-1.908,11.572,11.572,0,0,0-.39-1.826H27.305q.123,1.231.185,2.031t.062,1.7q0,.575-.021,1.169t-.1,1.621h-2.5q.082-.862.123-1.477t.041-1.313q0-.862-.041-1.662t-.205-2.072H16.022q-.164,1.272-.205,2.072t-.041,1.662q0,.821.041,1.58t.205,2.031h7.262v2.462H16.473A26.541,26.541,0,0,0,18.2,31.449a9.012,9.012,0,0,0,2.216,2.913,13.634,13.634,0,0,0,1.58-2.01,21.1,21.1,0,0,0,1.292-2.3v6.524q-.7.123-1.416.185T20.412,36.824Zm13.048-1.6-5.252-5.252V34.2H25.746V25.746H34.2v2.462H29.931l5.252,5.252Z" transform="translate(-4 -4)" fill="current"/>
</svg>
