<svg xmlns="http://www.w3.org/2000/svg" width="73" height="72" viewBox="0 0 73 72"><defs><style>.a{fill:#e5dfd3;}.b{fill:#fff;}</style></defs><g transform="translate(-900 -497)"><rect class="a" width="73" height="72" rx="10" transform="translate(900 497)"/><path class="b" d="M86.906,179.555H77.6v-9.3a4.652,4.652,0,0,0-9.3,0v9.3h-9.3a4.653,4.653,0,0,0-4.652,4.653h0a4.652,4.652,0,0,0,4.652,4.652h9.3v9.3a4.652,4.652,0,0,0,9.3,0v-9.3h9.3a4.652,4.652,0,0,0,4.652-4.652h0A4.653,4.653,0,0,0,86.906,179.555Z" transform="translate(863.583 348.895)"/></g></svg>