<svg xmlns="http://www.w3.org/2000/svg" width="81" height="81" viewBox="0 0 81 81"><defs><style>.a{fill:#e5dfd3;}.b{fill:#fff;}</style></defs><g transform="translate(-866 -705)"><circle class="a" cx="40.5" cy="40.5" r="40.5" transform="translate(866 705)"/><path class="b" d="M90.722,181.19h-10.4v-10.4a5.2,5.2,0,0,0-10.4,0v10.4h-10.4a5.2,5.2,0,0,0-5.2,5.2h0a5.2,5.2,0,0,0,5.2,5.2h10.4v10.4a5.2,5.2,0,0,0,10.4,0v-10.4h10.4a5.2,5.2,0,0,0,5.2-5.2h0A5.2,5.2,0,0,0,90.722,181.19Z" transform="translate(831.406 559.067)"/></g></svg>