<svg xmlns="http://www.w3.org/2000/svg" width="38" height="38" viewBox="0 0 38 38"><defs><style>.a{fill:red;}.b{fill:#fff;}</style></defs><circle class="a" cx="19" cy="19" r="19"/><path class="b" d="M10.914,25.681A1.716,1.716,0,0,1,9.691,25.2a1.541,1.541,0,0,1-.508-1.158V8.46H8V6.82h5.423V6h7.616v.82h5.423V8.46H25.279V24.041a1.535,1.535,0,0,1-.519,1.148,1.706,1.706,0,0,1-1.212.492ZM23.549,8.46H10.914V24.041H23.549ZM13.971,21.69H15.7V10.784H13.971Zm4.789,0h1.731V10.784H18.76ZM10.914,8.46v0Z" transform="translate(1.769 3.159)"/></svg>