<svg xmlns="http://www.w3.org/2000/svg" width="54.992" height="54.993" viewBox="0 0 54.992 54.993">
  <g id="Groupe_130" data-name="Groupe 130" transform="translate(-426.106 -289.273)">
    <path id="Tracé_379" data-name="Tracé 379" d="M453.6,289.273a27.5,27.5,0,1,0,27.5,27.5A27.526,27.526,0,0,0,453.6,289.273Zm0,52.907a25.411,25.411,0,1,1,25.412-25.412A25.439,25.439,0,0,1,453.6,342.18Z" transform="translate(0)" fill="#d2d2d1"/>
    <path id="Tracé_380" data-name="Tracé 380" d="M433.8,313.232a3.53,3.53,0,1,0,7.06,0V309.7h-3.531A3.539,3.539,0,0,0,433.8,313.232Z" transform="translate(3.001 7.969)" fill="#d2d2d1"/>
    <path id="Tracé_381" data-name="Tracé 381" d="M443.689,309.7a3.539,3.539,0,0,0-3.531,3.529v8.839a3.53,3.53,0,0,0,7.06,0v-8.839A3.539,3.539,0,0,0,443.689,309.7Z" transform="translate(5.481 7.969)" fill="#d2d2d1"/>
    <path id="Tracé_382" data-name="Tracé 382" d="M443.689,296.967a3.53,3.53,0,1,0,0,7.06h3.529V300.5A3.539,3.539,0,0,0,443.689,296.967Z" transform="translate(5.481 3.001)" fill="#d2d2d1"/>
    <path id="Tracé_383" data-name="Tracé 383" d="M446.169,303.325h-8.839a3.53,3.53,0,0,0,0,7.06h8.839a3.53,3.53,0,0,0,0-7.06Z" transform="translate(3.001 5.481)" fill="#d2d2d1"/>
    <path id="Tracé_384" data-name="Tracé 384" d="M456.425,303.325a3.539,3.539,0,0,0-3.531,3.531v3.529h3.531a3.53,3.53,0,0,0,0-7.06Z" transform="translate(10.449 5.481)" fill="#d2d2d1"/>
    <path id="Tracé_385" data-name="Tracé 385" d="M450.065,312.865a3.539,3.539,0,0,0,3.531-3.529V300.5a3.53,3.53,0,0,0-7.06,0v8.839A3.539,3.539,0,0,0,450.065,312.865Z" transform="translate(7.969 3.001)" fill="#d2d2d1"/>
    <path id="Tracé_386" data-name="Tracé 386" d="M450.065,316.061h-3.529v3.531a3.53,3.53,0,1,0,3.529-3.531Z" transform="translate(7.969 10.449)" fill="#d2d2d1"/>
    <path id="Tracé_387" data-name="Tracé 387" d="M458.9,309.7h-8.839a3.53,3.53,0,0,0,0,7.06H458.9a3.53,3.53,0,0,0,0-7.06Z" transform="translate(7.969 7.969)" fill="#d2d2d1"/>
  </g>
</svg>
