<svg xmlns="http://www.w3.org/2000/svg" width="54.994" height="54.993" viewBox="0 0 54.994 54.993"><defs><style>.a{fill:#41718e;}</style></defs><path class="a" d="M286.863,182.748a27.5,27.5,0,1,1,27.5-27.5A27.527,27.527,0,0,1,286.863,182.748Zm0-52.907a25.411,25.411,0,1,0,25.412,25.412A25.441,25.441,0,0,0,286.863,129.84Z" transform="translate(-259.366 -127.755)"/><path class="a" d="M269.007,159.606A16.45,16.45,0,0,0,294.312,145a11.722,11.722,0,0,0,2.884-2.994,11.533,11.533,0,0,1-3.321.91,5.791,5.791,0,0,0,2.542-3.2,11.6,11.6,0,0,1-3.671,1.4,5.788,5.788,0,0,0-9.856,5.275,16.413,16.413,0,0,1-11.92-6.043,5.79,5.79,0,0,0,1.789,7.722,5.765,5.765,0,0,1-2.62-.724,5.791,5.791,0,0,0,4.639,5.745,5.789,5.789,0,0,1-2.611.1,5.785,5.785,0,0,0,5.4,4.017A11.63,11.63,0,0,1,269.007,159.606Z" transform="translate(-255.605 -123.253)"/></svg>