<svg xmlns="http://www.w3.org/2000/svg" width="54.993" height="54.993" viewBox="0 0 54.993 54.993"><defs><style>.a{opacity:0.199;}.b,.c{fill:#222221;}.c{fill-rule:evenodd;}</style></defs><g class="a"><path class="b" d="M342.257,290.6a27.5,27.5,0,1,1,27.5-27.5A27.526,27.526,0,0,1,342.257,290.6Zm0-52.907A25.411,25.411,0,1,0,367.668,263.1,25.44,25.44,0,0,0,342.257,237.69Z" transform="translate(-314.761 -235.605)"/><g transform="translate(12.986 12.983)"><path class="c" d="M353.117,258.725a14.25,14.25,0,0,0-28.473-.26c-.007.206-.013.413-.013.62a14.032,14.032,0,0,0,2.041,7.3l-2.569,7.583,7.89-2.508a14.265,14.265,0,0,0,21.13-12.379C353.124,258.965,353.124,258.844,353.117,258.725Zm-14.24,12.245A11.929,11.929,0,0,1,332.288,269l-4.6,1.467,1.494-4.415a11.765,11.765,0,0,1-2.281-6.97,10.953,10.953,0,0,1,.06-1.154,11.983,11.983,0,0,1,23.856.227c.028.307.04.613.04.927A11.944,11.944,0,0,1,338.877,270.97Z" transform="translate(-324.103 -244.945)"/><path class="c" d="M343.21,259.784c-.353-.174-2.067-1.015-2.387-1.127s-.555-.174-.788.174-.906,1.126-1.107,1.353-.407.261-.76.088a9.465,9.465,0,0,1-2.808-1.721,10.314,10.314,0,0,1-1.941-2.4c-.2-.346-.021-.534.153-.706s.348-.407.527-.607c.047-.06.086-.113.127-.167a3.828,3.828,0,0,0,.221-.413.629.629,0,0,0-.026-.607c-.088-.174-.788-1.881-1.081-2.574s-.58-.574-.787-.574-.434-.033-.667-.033a1.292,1.292,0,0,0-.933.434,3.88,3.88,0,0,0-1.22,2.9,4.388,4.388,0,0,0,.179,1.18,7.854,7.854,0,0,0,1.247,2.4c.174.227,2.415,3.842,5.963,5.236s3.554.92,4.2.86a3.487,3.487,0,0,0,2.353-1.647,2.855,2.855,0,0,0,.207-1.649C343.791,260.044,343.558,259.956,343.21,259.784Z" transform="translate(-321.907 -242.789)"/></g></g></svg>