<svg xmlns="http://www.w3.org/2000/svg" width="54.993" height="54.992" viewBox="0 0 54.993 54.992"><defs><style>.a{opacity:0.199;}.b{fill:#222221;}.c{fill:#fff;}</style></defs><g class="a" transform="translate(0)"><path class="b" d="M342.257,344.523a27.5,27.5,0,1,1,27.5-27.5A27.526,27.526,0,0,1,342.257,344.523Zm0-52.907a25.411,25.411,0,1,0,25.412,25.412A25.439,25.439,0,0,0,342.257,291.615Z" transform="translate(-314.761 -289.53)"/><g transform="translate(6.325 12.58)"><path class="b" d="M360.77,303.238a5.321,5.321,0,0,0-3.745-3.767c-3.3-.891-16.543-.891-16.543-.891s-13.24,0-16.543.891a5.321,5.321,0,0,0-3.743,3.767c-.884,3.324-.884,10.259-.884,10.259s0,6.934.884,10.257a5.325,5.325,0,0,0,3.743,3.768c3.3.89,16.543.89,16.543.89s13.242,0,16.543-.89a5.325,5.325,0,0,0,3.745-3.768c.884-3.324.884-10.257.884-10.257S361.654,306.562,360.77,303.238Z" transform="translate(-319.311 -298.58)"/><path class="c" d="M331.426,317.373V304.782l11.067,6.3Z" transform="translate(-314.585 -296.161)"/></g></g></svg>