<svg xmlns="http://www.w3.org/2000/svg" width="54.993" height="54.992" viewBox="0 0 54.993 54.992">
  <g id="Groupe_158" data-name="Groupe 158" transform="translate(-3670 -2836.008)" style="isolation: isolate">
    <path id="Tracé_171" data-name="Tracé 171" d="M342.257,344.523a27.5,27.5,0,1,1,27.5-27.5A27.526,27.526,0,0,1,342.257,344.523Zm0-52.907a25.411,25.411,0,1,0,25.412,25.412A25.439,25.439,0,0,0,342.257,291.615Z" transform="translate(3355.239 2546.478)" fill="#c9c9c9"/>
    <path id="Soustraction_2" data-name="Soustraction 2" d="M21.171,29.832c-.132,0-13.279-.01-16.543-.89A5.324,5.324,0,0,1,.884,25.174C.01,21.888,0,14.986,0,14.917S.01,7.944.884,4.658A5.32,5.32,0,0,1,4.628.891C7.892.01,21.038,0,21.171,0S34.45.01,37.714.891a5.32,5.32,0,0,1,3.745,3.767c.875,3.286.885,10.189.885,10.258s-.01,6.972-.885,10.257a5.324,5.324,0,0,1-3.745,3.768C34.45,29.822,21.3,29.832,21.171,29.832ZM16.841,8.621V21.212l11.067-6.3Z" transform="translate(3676.325 2848.588)" fill="#c9c9c9"/>
  </g>
</svg>
